<svg width="138" height="138" viewBox="0 0 138 138" fill="none" xmlns="http://www.w3.org/2000/svg">
<path d="M53.3855 16.429C39.453 20.5859 27.7431 30.1068 20.8305 42.898C13.9179 55.6892 12.3699 70.7018 16.5268 84.6342C20.6836 98.5667 30.2046 110.277 42.9958 117.189C55.787 124.102 70.7995 125.65 84.732 121.493C98.6645 117.336 110.374 107.815 117.287 95.024C124.2 82.2328 125.748 67.2202 121.591 53.2877C117.42 39.3647 107.897 27.6643 95.1105 20.7536C82.3235 13.8434 67.3171 12.2877 53.3855 16.429ZM82.4929 113.988C70.5507 117.551 57.6823 116.225 46.7188 110.3C35.7553 104.375 27.5944 94.3375 24.0313 82.3952C20.4683 70.4529 21.7951 57.5846 27.7199 46.6211C33.6446 35.6576 43.6822 27.4967 55.6245 23.9336C67.5668 20.3706 80.4351 21.6974 91.3986 27.6221C102.362 33.5469 110.523 43.5845 114.086 55.5268C117.635 67.4689 116.302 80.3305 110.378 91.2903C104.455 102.25 94.4263 110.414 82.4929 113.988Z" fill="#F6C246"/>
<path d="M73.205 55.4651C74.2001 55.1682 75.0367 54.4883 75.5303 53.5744C76.0243 52.6609 76.1347 51.5885 75.8377 50.5933C75.4378 49.2527 75.7835 47.8006 76.7443 46.7839C77.7052 45.7672 79.1357 45.3404 80.4966 45.6643C81.8575 45.9883 82.9423 47.0135 83.3423 48.3543C83.7423 49.695 84.8271 50.7201 86.188 51.0442C87.5489 51.3681 88.9794 50.9414 89.9403 49.9247C90.9012 48.908 91.2469 47.4559 90.8469 46.1152C89.647 42.0937 86.3928 39.0174 82.3098 38.0456C78.2269 37.0741 73.9361 38.3543 71.0529 41.4041C68.1699 44.4543 67.1333 48.8107 68.3332 52.8323C68.6301 53.8275 69.31 54.664 70.2239 55.1576C71.1374 55.6517 72.2098 55.762 73.205 55.4651Z" fill="#F6C246"/>
<path d="M43.1874 64.4212C44.1825 64.1243 45.0191 63.4443 45.5127 62.5305C46.0067 61.6169 46.1171 60.5446 45.8202 59.5494C45.4202 58.2087 45.7659 56.7567 46.7267 55.7399C47.6877 54.7232 49.1181 54.2964 50.479 54.6204C51.8399 54.9444 52.9247 55.9696 53.3247 57.3103C53.7247 58.651 54.8095 59.6762 56.1704 60.0002C57.5313 60.3242 58.9618 59.8974 59.9227 58.8807C60.8836 57.864 61.2293 56.412 60.8293 55.0713C59.6294 51.0497 56.3752 47.9735 52.2922 47.0016C48.2093 46.0302 43.9185 47.3104 41.0354 50.3602C38.1524 53.4104 37.1157 57.7667 38.3156 61.7884C38.6125 62.7835 39.2924 63.6201 40.2063 64.1137C41.1198 64.6077 42.1922 64.7181 43.1874 64.4212Z" fill="#F6C246"/>
<path d="M99.6223 68.5866C98.6145 68.3374 97.5488 68.4991 96.6596 69.0356C95.7708 69.5719 95.1311 70.4395 94.8819 71.4474C93.5415 76.0758 91.105 80.3127 87.7792 83.7988C84.453 87.2852 80.3355 89.9183 75.7749 91.4747C74.5025 91.8067 73.2063 92.0419 71.8983 92.1776L68.1042 79.4609C67.0767 75.9714 64.6979 73.0372 61.4965 71.3106C58.297 69.5763 54.539 69.186 51.0514 70.2253C47.5636 71.2642 44.633 73.6479 42.9042 76.8504C41.176 80.0532 40.7927 83.8117 41.8382 87.2974L42.398 89.1735C42.5985 89.8441 42.975 90.4486 43.4881 90.9242C48.1367 95.0031 53.7192 97.872 59.7419 99.2774C65.7644 100.682 72.0406 100.58 78.0139 98.9788C83.8938 97.0525 89.2057 93.7003 93.4751 89.2226C97.7445 84.7445 100.84 79.2793 102.484 73.3148C102.729 72.3082 102.566 71.2459 102.03 70.3597C101.494 69.4734 100.628 68.8361 99.6226 68.5865L99.6223 68.5866ZM63.7025 92.0975C58.4902 91.4451 53.583 89.2814 49.5863 85.8725L49.3434 85.0583C48.7434 83.0473 49.2621 80.8695 50.7033 79.3442C52.1446 77.8194 54.2905 77.1792 56.3317 77.665C58.3731 78.1512 60.0003 79.6888 60.6003 81.6998L63.7025 92.0975Z" fill="#F6C246"/>
</svg>
