<svg width="80" height="81" viewBox="0 0 80 81" fill="none" xmlns="http://www.w3.org/2000/svg">
<path d="M80 40.5C80 40.9641 79.6833 41.3691 79.2417 41.4787L60.825 46.1447L74.475 59.5097C74.8083 59.8303 74.875 60.345 74.6417 60.7416C74.4083 61.1466 73.9417 61.3406 73.5 61.2056L55.2417 55.9238L60.4583 74.4103C60.5833 74.8575 60.3917 75.33 60 75.5662C59.6 75.7941 59.1 75.7266 58.7833 75.3891L45.5833 61.5853L40.975 80.2322C40.8667 80.6794 40.4667 81 40.0083 81C39.55 81 39.15 80.6794 39.0417 80.2322L34.4333 61.5853L21.2333 75.4059C20.9167 75.7434 20.4083 75.8109 20.0167 75.5747C19.6167 75.3384 19.4333 74.8659 19.5583 74.4188L24.75 55.9322L6.5 61.2141C6.05833 61.3406 5.59167 61.1466 5.35833 60.75C5.125 60.345 5.2 59.8388 5.53333 59.5181L19.175 46.1531L0.758334 41.4872C0.316667 41.3775 0 40.9725 0 40.5084C0 40.0444 0.316667 39.6394 0.758334 39.5297L19.175 34.8638L5.525 21.4819C5.19167 21.1613 5.125 20.6466 5.35 20.25C5.58333 19.845 6.05 19.6509 6.49167 19.7859L24.75 25.0678L19.5417 6.58125C19.4167 6.13406 19.6083 5.66156 20 5.42531C20.4 5.1975 20.9 5.265 21.2167 5.59406L34.4167 19.4147L39.025 0.767813C39.1333 0.320626 39.5333 0 39.9917 0C40.45 0 40.85 0.320626 40.9583 0.767813L45.5667 19.4147L58.7667 5.59406C59.0833 5.25656 59.5917 5.18906 59.9833 5.42531C60.3833 5.66156 60.575 6.13406 60.4417 6.58125L55.225 25.0678L73.4833 19.7859C73.925 19.6594 74.3917 19.8534 74.625 20.25C74.8583 20.655 74.7833 21.1613 74.4583 21.4819L60.825 34.8469L79.2417 39.5128C79.6833 39.6309 80 40.0359 80 40.5Z" fill="#F6C246"/>
</svg>
